<mxfile host="app.diagrams.net" modified="2024-02-19T06:49:39.505Z" agent="Mozilla/5.0 (Macintosh; Intel Mac OS X 10.15; rv:122.0) Gecko/20100101 Firefox/122.0" version="23.1.5" etag="vlUd0NPgqEGlVgBBxTzh" type="github">
  <diagram name="Page-1" id="Zk63Dt14dnIti2gdf6ZO">
    <mxGraphModel>
      <root>
        <mxCell id="0" />
        <mxCell id="1" parent="0" />
      </root>
    </mxGraphModel>
  </diagram>
</mxfile>
